<svg version="1.1" xmlns="http://www.w3.org/2000/svg" width="682.667" height="682.667" viewBox="0 0 512.000000 512.000000"><path d="M0 256v256h512V0H0v256zm148.4-81.8c1.4 2 1.6 10.7 1.6 74V320h82.9l1.5 2.2c1 1.4 1.6 4.4 1.6 8.1 0 4.8-.4 6.2-2.5 8.2l-2.4 2.5h-49.9c-47.7 0-50.1-.1-52.3-1.9l-2.4-1.9-.3-79.1c-.2-67.7 0-79.6 1.2-82.6l1.5-3.5h9c8.2 0 9.1.2 10.5 2.2zm200.6.1c25.9 7.8 38.6 26.3 36.7 53.7-1.7 23.5-13.9 37.9-37.5 44.2-6.6 1.7-11.8 2.1-35.4 2.5l-27.8.6v60.8l-2.6 2.5c-2.4 2.4-3 2.6-10.5 2.2-6.6-.3-8.3-.7-9.5-2.3-1.2-1.6-1.4-14.6-1.4-82 0-71.9.2-80.3 1.6-82.3l1.6-2.3 39.7.4c32.9.3 40.5.6 45.1 2z"/><path d="M285 222.9V254h25.3c32 0 37.5-1.3 45.1-10.2 4.9-5.7 7-13 6.4-22.7-.8-13.3-6.6-21.9-17.7-26.3-5.2-2-7.5-2.2-32.3-2.6l-26.8-.4v31.1z"/></svg>
